<?xml version="1.0" encoding="UTF-8"?>
<svg version="1.1" xmlns="http://www.w3.org/2000/svg" width="500" height="500">
<path d="M0 0 C0.91644287 0.00523682 1.83288574 0.01047363 2.77709961 0.01586914 C3.76645508 0.0190918 4.75581055 0.02231445 5.77514648 0.02563477 C6.81606445 0.03401367 7.85698242 0.04239258 8.92944336 0.05102539 C10.49662109 0.05779297 10.49662109 0.05779297 12.09545898 0.06469727 C14.68600996 0.07652627 17.27644895 0.0930085 19.86694336 0.11352539 C16.46667905 7.25034388 12.78242111 13.97776184 8.45678711 20.59399414 C6.73908069 23.31615788 5.32285713 26.08494524 3.94360352 28.98779297 C2.79471626 31.25612888 1.52274844 33.40357387 0.19897461 35.57446289 C-3.41694648 41.55794485 -6.90068361 47.61413338 -10.38305664 53.67602539 C-14.6851312 61.15283001 -18.99706345 68.623032 -23.38305664 76.05102539 C-26.9659011 82.12260159 -30.52911586 88.20518896 -34.07055664 94.30102539 C-34.53171875 95.09178467 -34.99288086 95.88254395 -35.46801758 96.69726562 C-40.03905097 103.53914248 -40.03905097 103.53914248 -42.13305664 111.11352539 C-41.43180664 111.60852539 -40.73055664 112.10352539 -40.00805664 112.61352539 C-34.22861642 117.63912558 -29.71778399 125.50667613 -28.91455078 133.20874023 C-28.79231458 135.59806414 -28.75427752 137.97110432 -28.75805664 140.36352539 C-28.75676758 141.2060083 -28.75547852 142.04849121 -28.75415039 142.91650391 C-28.85022546 148.57128588 -29.60345552 153.12460103 -32.25805664 158.20336914 C-33.4106984 160.36945581 -33.4106984 160.36945581 -33.13305664 164.11352539 C-32.57102539 164.34040039 -32.00899414 164.56727539 -31.42993164 164.80102539 C-28.48678804 166.48282174 -26.63260932 168.58461649 -24.38305664 171.11352539 C-23.18422852 172.44383789 -23.18422852 172.44383789 -21.96118164 173.80102539 C-20.13305664 176.11352539 -20.13305664 176.11352539 -20.13305664 178.11352539 C-19.54008789 178.37004883 -18.94711914 178.62657227 -18.33618164 178.89086914 C-15.923693 180.22971479 -14.64165064 181.56315154 -12.88305664 183.67602539 C-9.56083457 187.61801123 -6.12337719 191.43336601 -2.63696289 195.23071289 C-1.13305664 197.11352539 -1.13305664 197.11352539 -1.13305664 199.11352539 C-0.47305664 199.11352539 0.18694336 199.11352539 0.86694336 199.11352539 C0.86694336 199.77352539 0.86694336 200.43352539 0.86694336 201.11352539 C1.52694336 201.11352539 2.18694336 201.11352539 2.86694336 201.11352539 C7.86694336 206.58971587 7.86694336 206.58971587 7.86694336 209.11352539 C8.52694336 209.11352539 9.18694336 209.11352539 9.86694336 209.11352539 C11.17163086 210.40649414 11.17163086 210.40649414 12.74194336 212.30102539 C16.02330775 216.165896 19.41544815 219.90164107 22.86694336 223.61352539 C29.96042244 231.27880997 29.96042244 231.27880997 33.11694336 234.80102539 C33.92905273 235.70401367 33.92905273 235.70401367 34.75756836 236.62524414 C35.86694336 238.11352539 35.86694336 238.11352539 35.86694336 240.11352539 C36.52694336 240.11352539 37.18694336 240.11352539 37.86694336 240.11352539 C37.86694336 240.77352539 37.86694336 241.43352539 37.86694336 242.11352539 C38.52694336 242.11352539 39.18694336 242.11352539 39.86694336 242.11352539 C41.24926779 243.73978943 42.58631851 245.40602559 43.86694336 247.11352539 C47.10269169 246.06190718 50.11797469 244.99037794 53.17944336 243.48852539 C61.15821709 240.49072023 72.36096574 240.7647608 80.36694336 243.67602539 C90.69326538 248.66356868 98.60939324 256.39334494 103.10522461 266.90258789 C106.46590211 276.65716975 106.24918608 288.73398835 101.86694336 298.11352539 C98.68817577 303.5292035 95.27105093 308.71665777 89.86694336 312.11352539 C89.20694336 312.11352539 88.54694336 312.11352539 87.86694336 312.11352539 C87.86694336 312.77352539 87.86694336 313.43352539 87.86694336 314.11352539 C86.64187438 314.76709817 85.4116482 315.41100772 84.17944336 316.05102539 C83.49495117 316.41067383 82.81045898 316.77032227 82.10522461 317.14086914 C76.9099029 319.39852203 71.62631071 319.32671702 66.05444336 319.36352539 C64.90105469 319.39446289 64.90105469 319.39446289 63.72436523 319.42602539 C56.66161722 319.47370639 51.09126209 317.48503137 44.86694336 314.11352539 C44.86694336 313.45352539 44.86694336 312.79352539 44.86694336 312.11352539 C44.16569336 311.92790039 43.46444336 311.74227539 42.74194336 311.55102539 C35.80488118 308.0824943 31.6524812 300.42697523 28.77709961 293.48071289 C27.61574023 289.18418164 27.53693498 285.23064594 27.55444336 280.80102539 C27.53833008 279.99729492 27.5222168 279.19356445 27.50561523 278.36547852 C27.50086428 272.46003869 28.69564366 267.59229864 30.86694336 262.11352539 C30.20694336 261.49477539 29.54694336 260.87602539 28.86694336 260.23852539 C26.86694336 258.11352539 26.86694336 258.11352539 26.86694336 256.11352539 C25.87694336 255.78352539 24.88694336 255.45352539 23.86694336 255.11352539 C22.04272461 253.33618164 22.04272461 253.33618164 20.17944336 251.17602539 C19.24551758 250.11061523 19.24551758 250.11061523 18.29272461 249.02368164 C16.86694336 247.11352539 16.86694336 247.11352539 16.86694336 245.11352539 C16.20694336 245.11352539 15.54694336 245.11352539 14.86694336 245.11352539 C13.42163086 243.67993164 13.42163086 243.67993164 11.74194336 241.67602539 C8.37315764 237.69731216 4.89654516 233.83646929 1.37084961 229.99633789 C-0.13305664 228.11352539 -0.13305664 228.11352539 -0.13305664 226.11352539 C-0.79305664 226.11352539 -1.45305664 226.11352539 -2.13305664 226.11352539 C-2.13305664 225.45352539 -2.13305664 224.79352539 -2.13305664 224.11352539 C-2.79305664 224.11352539 -3.45305664 224.11352539 -4.13305664 224.11352539 C-5.54321289 222.71508789 -5.54321289 222.71508789 -7.19555664 220.73852539 C-9.88643889 217.57604522 -12.60293327 214.4481147 -15.38305664 211.36352539 C-16.13458008 210.52950195 -16.88610352 209.69547852 -17.66040039 208.83618164 C-19.43770442 206.87918179 -21.22051889 204.92857716 -23.01196289 202.98461914 C-23.49955078 202.45513672 -23.98713867 201.9256543 -24.48950195 201.38012695 C-25.87553472 199.87696465 -27.26399739 198.37604398 -28.65258789 196.87524414 C-35.13305664 189.65998208 -35.13305664 189.65998208 -35.13305664 187.11352539 C-35.79305664 187.11352539 -36.45305664 187.11352539 -37.13305664 187.11352539 C-37.13305664 186.45352539 -37.13305664 185.79352539 -37.13305664 185.11352539 C-37.79305664 185.11352539 -38.45305664 185.11352539 -39.13305664 185.11352539 C-39.13305664 184.45352539 -39.13305664 183.79352539 -39.13305664 183.11352539 C-39.79305664 183.11352539 -40.45305664 183.11352539 -41.13305664 183.11352539 C-42.08973632 181.9580177 -43.00014961 180.76383585 -43.88305664 179.55102539 C-45.42331799 177.61308561 -45.42331799 177.61308561 -47.13305664 176.11352539 C-50.14805523 175.87902467 -50.14805523 175.87902467 -53.13305664 177.11352539 C-67.31709798 181.31620431 -77.94432022 179.91559024 -91.13305664 173.11352539 C-92.5059082 174.30461914 -92.5059082 174.30461914 -93.90649414 175.51977539 C-95.10679375 176.55128287 -96.3073267 177.58251888 -97.50805664 178.61352539 C-98.11133789 179.13817383 -98.71461914 179.66282227 -99.33618164 180.20336914 C-103.90649414 184.11352539 -103.90649414 184.11352539 -106.13305664 184.11352539 C-106.13305664 184.77352539 -106.13305664 185.43352539 -106.13305664 186.11352539 C-108.16033244 187.83686179 -110.19827922 189.45182889 -112.32055664 191.05102539 C-118.03645571 195.43733743 -123.58949589 199.96467633 -129.04394531 204.671875 C-132.93781136 208.01590275 -132.93781136 208.01590275 -135.13305664 209.11352539 C-134.6496582 210.54051758 -134.6496582 210.54051758 -134.15649414 211.99633789 C-132.83410135 216.65162863 -132.76531689 221.17498295 -132.75805664 225.98852539 C-132.73356445 226.83543945 -132.70907227 227.68235352 -132.68383789 228.55493164 C-132.65459731 234.91963123 -134.17230598 239.52145486 -137.13305664 245.11352539 C-137.61367554 246.0855188 -137.61367554 246.0855188 -138.10400391 247.07714844 C-140.17791449 251.04424236 -142.39263265 253.65272013 -146.13305664 256.11352539 C-146.79305664 256.11352539 -147.45305664 256.11352539 -148.13305664 256.11352539 C-148.13305664 256.77352539 -148.13305664 257.43352539 -148.13305664 258.11352539 C-149.73596194 258.92851101 -151.34042942 259.74042466 -152.94555664 260.55102539 C-154.28553711 261.2297168 -154.28553711 261.2297168 -155.65258789 261.92211914 C-158.13305664 263.11352539 -158.13305664 263.11352539 -161.13305664 264.11352539 C-160.59710524 271.1779932 -159.44790664 277.91075623 -157.82055664 284.80102539 C-157.62010742 285.67952148 -157.4196582 286.55801758 -157.21313477 287.46313477 C-155.98135069 292.78306908 -154.61685192 298.05521568 -153.18383789 303.32446289 C-151.25149409 310.50870128 -149.61588118 317.73123485 -148.06826782 325.0067749 C-147.32152001 328.51435844 -146.56210999 332.0191847 -145.80102539 335.52368164 C-145.65444992 336.19870728 -145.50787445 336.87373291 -145.3568573 337.56921387 C-144.04094167 343.59663962 -142.56992338 349.57076484 -141.02758789 355.54321289 C-139.98181555 359.71716889 -139.05112654 363.90998816 -138.13305664 368.11352539 C-136.82062642 374.11478116 -135.43679541 380.09153273 -133.94555664 386.05102539 C-133.77862305 386.7194043 -133.61168945 387.3877832 -133.43969727 388.07641602 C-132.75262345 390.79360916 -132.01980995 393.45326547 -131.13305664 396.11352539 C-130.2268457 396.13930664 -129.32063477 396.16508789 -128.38696289 396.19165039 C-120.81020973 396.54443043 -114.76917852 397.33901162 -108.13305664 401.11352539 C-108.13305664 401.77352539 -108.13305664 402.43352539 -108.13305664 403.11352539 C-107.05024414 403.45383789 -107.05024414 403.45383789 -105.94555664 403.80102539 C-102.56873247 405.37687667 -100.57538625 407.32229156 -98.13305664 410.11352539 C-98.13305664 410.77352539 -98.13305664 411.43352539 -98.13305664 412.11352539 C-97.47305664 412.11352539 -96.81305664 412.11352539 -96.13305664 412.11352539 C-95.31388022 413.83953918 -94.50299649 415.56949009 -93.69555664 417.30102539 C-93.2430957 418.26395508 -92.79063477 419.22688477 -92.32446289 420.21899414 C-88.56894297 429.34306058 -88.91129019 440.64172631 -92.16040039 449.87524414 C-96.40503829 459.64302532 -102.88866665 466.65669827 -112.59399414 471.11352539 C-123.2573882 475.31326213 -134.4649548 475.45027501 -145.13305664 471.11352539 C-154.61044358 465.68136459 -154.61044358 465.68136459 -156.13305664 461.11352539 C-157.12305664 460.78352539 -158.11305664 460.45352539 -159.13305664 460.11352539 C-166.8704576 450.28679658 -168.23312982 439.12238797 -166.89477539 426.94555664 C-165.03554841 417.83722244 -159.94512448 410.11498463 -152.86743164 404.25805664 C-151.13305664 403.11352539 -151.13305664 403.11352539 -149.13305664 403.11352539 C-149.5571582 401.91469727 -149.98125977 400.71586914 -150.41821289 399.48071289 C-152.52144062 393.16239475 -154.03215596 386.71317459 -155.57055664 380.23852539 C-155.88147082 378.94139676 -156.19242499 377.64427771 -156.50341797 376.34716797 C-158.39220969 368.43132076 -160.15797201 360.49787337 -161.78515625 352.52441406 C-162.91803336 347.00766247 -164.23333176 341.55517084 -165.63378906 336.10083008 C-166.90867089 331.10603632 -168.03958098 326.08838516 -169.13305664 321.05102539 C-170.34753599 315.46287176 -171.68155091 309.9409208 -173.19555664 304.42602539 C-174.89940584 298.20298241 -176.19897863 291.96038415 -177.41040039 285.62524414 C-178.25082031 281.54125762 -179.35860478 277.57306122 -180.50415039 273.56665039 C-181.39468855 270.09299843 -181.79656063 266.68038309 -182.13305664 263.11352539 C-182.83430664 263.01040039 -183.53555664 262.90727539 -184.25805664 262.80102539 C-194.03054252 260.46412659 -200.623912 253.49918498 -205.90649414 245.32446289 C-210.80989985 236.48583986 -211.40654584 226.08912855 -209.32055664 216.30102539 C-208.73274414 214.72321289 -208.73274414 214.72321289 -208.13305664 213.11352539 C-207.74118164 211.99977539 -207.34930664 210.88602539 -206.94555664 209.73852539 C-204.86765462 205.03646875 -201.64310831 200.84348391 -198.13305664 197.11352539 C-197.47305664 197.11352539 -196.81305664 197.11352539 -196.13305664 197.11352539 C-196.13305664 196.45352539 -196.13305664 195.79352539 -196.13305664 195.11352539 C-194.19680566 194.13189117 -192.25901125 193.15330085 -190.32055664 192.17602539 C-189.24161133 191.63075195 -188.16266602 191.08547852 -187.05102539 190.52368164 C-178.69783643 186.48686609 -167.47800669 186.88767272 -158.53930664 188.93774414 C-154.70395443 190.32445079 -151.5297202 191.84908302 -148.13305664 194.11352539 C-147.57875977 193.68040039 -147.02446289 193.24727539 -146.45336914 192.80102539 C-145.72891602 192.24415039 -145.00446289 191.68727539 -144.25805664 191.11352539 C-143.53875977 190.55665039 -142.81946289 189.99977539 -142.07836914 189.42602539 C-140.13305664 188.11352539 -140.13305664 188.11352539 -138.13305664 188.11352539 C-138.13305664 187.45352539 -138.13305664 186.79352539 -138.13305664 186.11352539 C-137.47305664 186.11352539 -136.81305664 186.11352539 -136.13305664 186.11352539 C-136.13305664 185.45352539 -136.13305664 184.79352539 -136.13305664 184.11352539 C-134.23461914 182.38696289 -134.23461914 182.38696289 -131.75805664 180.48852539 C-130.94594727 179.85688477 -130.13383789 179.22524414 -129.29711914 178.57446289 C-127.13305664 177.11352539 -127.13305664 177.11352539 -125.13305664 177.11352539 C-125.13305664 176.45352539 -125.13305664 175.79352539 -125.13305664 175.11352539 C-122.98064181 173.2865103 -120.81920317 171.56459901 -118.57055664 169.86352539 C-117.28450914 168.87379698 -115.99934356 167.88292149 -114.71508789 166.89086914 C-114.09585449 166.41375488 -113.47662109 165.93664062 -112.83862305 165.44506836 C-109.84226791 163.10580112 -106.98462406 160.62562049 -104.13305664 158.11352539 C-104.34961914 157.29174805 -104.34961914 157.29174805 -104.57055664 156.45336914 C-107.40583172 144.34438182 -108.05409383 131.05961574 -101.32836914 120.19946289 C-95.17528519 111.39939188 -87.76778181 104.90134449 -77.13305664 102.11352539 C-71.47480674 101.44669948 -65.80395603 101.74678459 -60.13305664 102.11352539 C-60.04411133 101.57856445 -59.95516602 101.04360352 -59.86352539 100.49243164 C-58.88588784 97.30857458 -57.23588907 94.85758461 -55.44555664 92.05102539 C-51.75943115 86.19445643 -48.39187792 80.21943516 -45.13305664 74.11352539 C-44.00986201 72.05004167 -42.88490084 69.98751839 -41.75805664 67.92602539 C-41.25532227 67.0043457 -40.75258789 66.08266602 -40.23461914 65.13305664 C-39.87110352 64.46661133 -39.50758789 63.80016602 -39.13305664 63.11352539 C-38.47305664 63.11352539 -37.81305664 63.11352539 -37.13305664 63.11352539 C-37.00157227 62.52700195 -36.87008789 61.94047852 -36.73461914 61.33618164 C-34.90891331 54.59055427 -30.66304409 48.74729835 -26.91430664 42.94946289 C-24.71170156 39.44268375 -22.74804617 35.84067251 -20.79321289 32.19165039 C-3.53236032 0.18799903 -3.53236032 0.18799903 0 0 Z M-191.57055664 207.23852539 C-193.34645144 208.96281531 -193.34645144 208.96281531 -193.13305664 211.11352539 C-193.79305664 211.11352539 -194.45305664 211.11352539 -195.13305664 211.11352539 C-198.64998785 219.89830636 -200.41596093 226.62578456 -197.21899414 235.71118164 C-193.85452964 243.29839241 -188.9489422 247.79406554 -181.94555664 252.05102539 C-174.50291755 254.1252035 -166.97332046 254.36606975 -159.82055664 251.17602539 C-153.00610144 247.22497319 -147.71536727 241.73215551 -145.07055664 234.23852539 C-143.27532215 226.73118114 -143.85314266 218.80341959 -147.71508789 212.02758789 C-152.82720098 205.12693937 -158.80632329 201.00091828 -167.13305664 199.11352539 C-168.12305664 198.82477539 -169.11305664 198.53602539 -170.13305664 198.23852539 C-177.92212148 197.91398102 -185.83517523 202.23844929 -191.57055664 207.23852539 Z " fill="#F85E5D" transform="translate(313.133056640625,-0.113525390625)"/>
<path d="M0 0 C0.82564453 -0.020625 1.65128906 -0.04125 2.50195312 -0.0625 C8.28515426 -0.09895832 12.55275318 0.80017404 17.8125 3.25 C19.3125 5.4375 19.3125 5.4375 19.8125 7.25 C20.4725 7.25 21.1325 7.25 21.8125 7.25 C21.8125 7.91 21.8125 8.57 21.8125 9.25 C22.8025 9.25 23.7925 9.25 24.8125 9.25 C24.8125 11.23 24.8125 13.21 24.8125 15.25 C23.8225 15.25 22.8325 15.25 21.8125 15.25 C21.8125 16.24 21.8125 17.23 21.8125 18.25 C20.8225 17.92 19.8325 17.59 18.8125 17.25 C18.3175 16.26 18.3175 16.26 17.8125 15.25 C8.91159632 12.08812181 -0.0654658 9.67612246 -9.1875 13.25 C-13.33899324 15.423689 -17.00023759 17.64605415 -19.8125 21.4453125 C-20.26625 22.04085937 -20.72 22.63640625 -21.1875 23.25 C-21.8475 23.25 -22.5075 23.25 -23.1875 23.25 C-23.31125 23.930625 -23.435 24.61125 -23.5625 25.3125 C-24.1875 28.25 -24.1875 28.25 -25.3125 31.4375 C-27.12229518 39.32303614 -25.54840911 45.94964338 -21.703125 52.98828125 C-17.76798682 58.8605622 -12.70854764 61.85451311 -6.1875 64.25 C-6.1875 64.58 -6.1875 64.91 -6.1875 65.25 C-10.7193934 65.55899273 -12.74335992 65.20212007 -16.1875 62.25 C-16.8475 62.25 -17.5075 62.25 -18.1875 62.25 C-18.331875 62.848125 -18.47625 63.44625 -18.625 64.0625 C-19.0747439 65.81150404 -19.61642341 67.53677023 -20.1875 69.25 C-18.8675 69.58 -17.5475 69.91 -16.1875 70.25 C-16.1875 70.58 -16.1875 70.91 -16.1875 71.25 C-13.5475 71.91 -10.9075 72.57 -8.1875 73.25 C-8.8475 74.57 -9.5075 75.89 -10.1875 77.25 C-10.1875 76.59 -10.1875 75.93 -10.1875 75.25 C-10.88875 75.146875 -11.59 75.04375 -12.3125 74.9375 C-22.08498588 72.6006012 -28.67835536 65.63565959 -33.9609375 57.4609375 C-38.86434321 48.62231447 -39.4609892 38.22560316 -37.375 28.4375 C-36.7871875 26.8596875 -36.7871875 26.8596875 -36.1875 25.25 C-35.795625 24.13625 -35.40375 23.0225 -35 21.875 C-32.92209798 17.17294336 -29.69755167 12.97995852 -26.1875 9.25 C-25.5275 9.25 -24.8675 9.25 -24.1875 9.25 C-24.1875 8.59 -24.1875 7.93 -24.1875 7.25 C-22.25124902 6.26836578 -20.31345461 5.28977546 -18.375 4.3125 C-17.29605469 3.76722656 -16.21710938 3.22195312 -15.10546875 2.66015625 C-9.8700259 0.13004263 -5.69464818 0.03474995 0 0 Z " fill="#F75C5A" transform="translate(141.1875,187.75)"/>
<path d="M0 0 C0.33 1.32 0.66 2.64 1 4 C0.34 4 -0.32 4 -1 4 C-0.67 4.99 -0.34 5.98 0 7 C-0.99 8.485 -0.99 8.485 -2 10 C-2 10.99 -2 11.98 -2 13 C0.36596356 12.82474344 1.68251505 12.34023014 3.30859375 10.59765625 C3.74300781 10.04980469 4.17742187 9.50195312 4.625 8.9375 C5.40875 7.968125 6.1925 6.99875 7 6 C7.66 6 8.32 6 9 6 C9 5.34 9 4.68 9 4 C9.99 3.67 10.98 3.34 12 3 C12 3.66 12 4.32 12 5 C11.34 5 10.68 5 10 5 C9.87625 5.680625 9.7525 6.36125 9.625 7.0625 C9 10 9 10 7.875 13.1875 C6.06520482 21.07303614 7.63909089 27.69964338 11.484375 34.73828125 C15.41951318 40.6105622 20.47895236 43.60451311 27 46 C27 46.33 27 46.66 27 47 C22.4681066 47.30899273 20.44414008 46.95212007 17 44 C16.34 44 15.68 44 15 44 C14.855625 44.598125 14.71125 45.19625 14.5625 45.8125 C14.1127561 47.56150404 13.57107659 49.28677023 13 51 C14.32 51.33 15.64 51.66 17 52 C17 52.33 17 52.66 17 53 C19.64 53.66 22.28 54.32 25 55 C24.34 56.32 23.68 57.64 23 59 C23 58.34 23 57.68 23 57 C22.29875 56.896875 21.5975 56.79375 20.875 56.6875 C11.10251412 54.3506012 4.50914464 47.38565959 -0.7734375 39.2109375 C-5.67684321 30.37231447 -6.2734892 19.97560316 -4.1875 10.1875 C-2.89957178 6.7304295 -1.51100034 3.36540985 0 0 Z " fill="#F46666" transform="translate(108,206)"/>
<path d="M0 0 C0.80050781 0.03480469 1.60101563 0.06960937 2.42578125 0.10546875 C3.63814453 0.14607422 3.63814453 0.14607422 4.875 0.1875 C5.48988281 0.22230469 6.10476562 0.25710937 6.73828125 0.29296875 C6.40828125 1.61296875 6.07828125 2.93296875 5.73828125 4.29296875 C7.05828125 4.95296875 8.37828125 5.61296875 9.73828125 6.29296875 C9.73828125 6.62296875 9.73828125 6.95296875 9.73828125 7.29296875 C7.96753208 7.32002604 6.19666414 7.3393907 4.42578125 7.35546875 C3.43964844 7.36707031 2.45351562 7.37867188 1.4375 7.390625 C-1.26171875 7.29296875 -1.26171875 7.29296875 -4.26171875 6.29296875 C-4.26171875 7.28296875 -4.26171875 8.27296875 -4.26171875 9.29296875 C-5.37546875 9.68484375 -6.48921875 10.07671875 -7.63671875 10.48046875 C-10.77476018 11.79305864 -10.77476018 11.79305864 -12.44921875 14.79296875 C-12.71734375 15.61796875 -12.98546875 16.44296875 -13.26171875 17.29296875 C-16.57206358 20.29296875 -16.57206358 20.29296875 -19.26171875 20.29296875 C-19.26171875 20.95296875 -19.26171875 21.61296875 -19.26171875 22.29296875 C-19.92171875 22.29296875 -20.58171875 22.29296875 -21.26171875 22.29296875 C-21.32359375 22.87046875 -21.38546875 23.44796875 -21.44921875 24.04296875 C-22.61808875 27.27983952 -24.38787024 28.48845922 -27.26171875 30.29296875 C-29.57421875 30.04296875 -29.57421875 30.04296875 -31.26171875 29.29296875 C-30.67368078 26.2687735 -30.03493757 23.27538422 -29.26171875 20.29296875 C-28.60171875 20.29296875 -27.94171875 20.29296875 -27.26171875 20.29296875 C-27.32359375 19.36484375 -27.38546875 18.43671875 -27.44921875 17.48046875 C-27.26171875 14.29296875 -27.26171875 14.29296875 -26.01171875 12.41796875 C-24.26171875 11.29296875 -24.26171875 11.29296875 -20.26171875 11.29296875 C-20.07609375 10.71546875 -19.89046875 10.13796875 -19.69921875 9.54296875 C-17.62837142 6.3016425 -14.77009493 4.67439187 -11.26171875 3.29296875 C-9.26208847 3.25451432 -7.26120242 3.24752594 -5.26171875 3.29296875 C-4.80667969 2.803125 -4.35164063 2.31328125 -3.8828125 1.80859375 C-2.26171875 0.29296875 -2.26171875 0.29296875 0 0 Z " fill="#F95B5B" transform="translate(136.26171875,189.70703125)"/>
<path d="M0 0 C0.66 0.33 1.32 0.66 2 1 C1.67 1.66 1.34 2.32 1 3 C1.66 3.33 2.32 3.66 3 4 C0.36 4 -2.28 4 -5 4 C-5 4.99 -5 5.98 -5 7 C-10.625 10 -10.625 10 -14 10 C-14.66 11.65 -15.32 13.3 -16 15 C-16.99 15 -17.98 15 -19 15 C-19.15149298 18.62885324 -19.15149298 18.62885324 -18 22 C-18.66 22.66 -19.32 23.32 -20 24 C-20 23.34 -20 22.68 -20 22 C-20.66 22.33 -21.32 22.66 -22 23 C-22.65772428 26.02934491 -22.65772428 26.02934491 -23 29 C-23.66 29 -24.32 29 -25 29 C-25 35.6 -25 42.2 -25 49 C-28.54522442 41.90955117 -27.90710989 32.40304743 -26 24.75 C-22.87662675 15.85582285 -16.46838438 7.94218745 -8.17578125 3.48046875 C-7.23089844 3.05378906 -6.28601563 2.62710938 -5.3125 2.1875 C-4.35988281 1.74792969 -3.40726563 1.30835937 -2.42578125 0.85546875 C-1.62527344 0.57316406 -0.82476562 0.29085937 0 0 Z " fill="#E88083" transform="translate(234,103)"/>
<path d="M0 0 C0.82564453 -0.020625 1.65128906 -0.04125 2.50195312 -0.0625 C8.28906799 -0.09898299 12.50913381 0.92557191 17.8125 3.25 C15.45296906 5.60953094 14.03354383 5.74141413 10.8125 6.25 C10.8125 5.59 10.8125 4.93 10.8125 4.25 C6.90269474 3.34210515 3.19877395 3.05532792 -0.8125 3 C-1.93914062 2.97421875 -3.06578125 2.9484375 -4.2265625 2.921875 C-7.53325702 3.28831608 -8.10416228 3.82691797 -10.1875 6.25 C-11.074375 6.20875 -11.96125 6.1675 -12.875 6.125 C-17.51052923 6.29992563 -20.58991062 8.41657638 -24.1875 11.25 C-24.5175 11.91 -24.8475 12.57 -25.1875 13.25 C-26.5075 12.92 -27.8275 12.59 -29.1875 12.25 C-27.8125 10.75 -27.8125 10.75 -26.1875 9.25 C-25.5275 9.25 -24.8675 9.25 -24.1875 9.25 C-24.1875 8.59 -24.1875 7.93 -24.1875 7.25 C-22.25124902 6.26836578 -20.31345461 5.28977546 -18.375 4.3125 C-17.29605469 3.76722656 -16.21710938 3.22195312 -15.10546875 2.66015625 C-9.8700259 0.13004263 -5.69464818 0.03474995 0 0 Z " fill="#EA6B6E" transform="translate(141.1875,187.75)"/>
<path d="M0 0 C0.49628906 0.39832031 0.99257812 0.79664063 1.50390625 1.20703125 C5.85302633 4.59884975 9.8350929 7.06315984 15 9 C15 9.33 15 9.66 15 10 C10.4681066 10.30899273 8.44414008 9.95212007 5 7 C4.34 7 3.68 7 3 7 C2.67 7.99 2.34 8.98 2 10 C2.33 8.35 2.66 6.7 3 5 C1.68 4.34 0.36 3.68 -1 3 C-0.67 2.01 -0.34 1.02 0 0 Z M-12 2 C-11.01 2.33 -10.02 2.66 -9 3 C-9 3.66 -9 4.32 -9 5 C-7.35 5 -5.7 5 -4 5 C-3.67 6.65 -3.34 8.3 -3 10 C-1.68 9.67 -0.36 9.34 1 9 C1.33 9.66 1.66 10.32 2 11 C1.67 11.99 1.34 12.98 1 14 C2.32 14.33 3.64 14.66 5 15 C5 15.33 5 15.66 5 16 C7.64 16.66 10.28 17.32 13 18 C12.34 19.32 11.68 20.64 11 22 C11 21.34 11 20.68 11 20 C10.29875 19.896875 9.5975 19.79375 8.875 19.6875 C1.48994576 17.92150877 -5.05909197 13.23063585 -9.3984375 6.98828125 C-10.32956273 5.36046303 -11.17511232 3.68414568 -12 2 Z " fill="#ED7373" transform="translate(120,243)"/>
<path d="M0 0 C0.33 0.99 0.66 1.98 1 3 C-0.32 3.33 -1.64 3.66 -3 4 C-3 4.99 -3 5.98 -3 7 C-3.66 7 -4.32 7 -5 7 C-5.33 7.99 -5.66 8.98 -6 10 C-6 9.34 -6 8.68 -6 8 C-6.66 8 -7.32 8 -8 8 C-7.81171228 10.44480079 -7.81171228 10.44480079 -7 13 C-5.03241727 14.36020151 -5.03241727 14.36020151 -3 15 C-3 14.34 -3 13.68 -3 13 C-1.02 13 0.96 13 3 13 C0.50082237 15.49917763 -1.79955797 16.00868864 -5.125 17.0234375 C-7.50349312 18.02915838 -7.50349312 18.02915838 -9 22 C-9.33 18.7 -9.66 15.4 -10 12 C-10.99 12.33 -11.98 12.66 -13 13 C-12.67 12.01 -12.34 11.02 -12 10 C-15.96 9.67 -19.92 9.34 -24 9 C-24 8.34 -24 7.68 -24 7 C-22.76636719 6.97873047 -22.76636719 6.97873047 -21.5078125 6.95703125 C-13.87810249 6.63105057 -5.71519812 5.71519812 0 0 Z " fill="#EF7171" transform="translate(159,246)"/>
<path d="M0 0 C1.60920937 3.21841874 0.0749168 5.71553199 -1 9 C-1.33 9.33 -1.66 9.66 -2 10 C-2.15740605 11.70563778 -2.25093392 13.41727244 -2.31640625 15.12890625 C-2.35830078 16.16337891 -2.40019531 17.19785156 -2.44335938 18.26367188 C-2.48267578 19.35228516 -2.52199219 20.44089844 -2.5625 21.5625 C-2.60568359 22.65498047 -2.64886719 23.74746094 -2.69335938 24.87304688 C-2.79982068 27.58189564 -2.90183516 30.29083992 -3 33 C-2.34 33 -1.68 33 -1 33 C1.125 39.75 1.125 39.75 0 42 C-6.45876827 34.07332986 -6.50478358 24.82386501 -6 15 C-5.2373819 9.29484437 -3.01369495 4.82191191 0 0 Z " fill="#ED7E7F" transform="translate(152,414)"/>
<path d="M0 0 C1.46132217 2.92264434 2.34099246 4.92463146 3 8 C3.99 7.34 4.98 6.68 6 6 C6 5.01 6 4.02 6 3 C6.66 3 7.32 3 8 3 C9.25 5.0625 9.25 5.0625 10 8 C7.66860552 13.53706188 5.1674504 16.06394863 0 19 C0 17.02 0 15.04 0 13 C1.32 13.33 2.64 13.66 4 14 C3.27731765 10.7014861 3.27731765 10.7014861 -0.0625 9.3125 C-1.5165625 8.6628125 -1.5165625 8.6628125 -3 8 C-3.33 8.66 -3.66 9.32 -4 10 C-4.66 9.34 -5.32 8.68 -6 8 C-4.02 5.36 -2.04 2.72 0 0 Z " fill="#F17071" transform="translate(166,237)"/>
<path d="M0 0 C1.32 0 2.64 0 4 0 C4 0.66 4 1.32 4 2 C4.66 2.33 5.32 2.66 6 3 C5.01 3.33 4.02 3.66 3 4 C3 4.66 3 5.32 3 6 C2.34 6 1.68 6 1 6 C0.938125 6.5775 0.87625 7.155 0.8125 7.75 C-0.35637 10.98687077 -2.12615149 12.19549047 -5 14 C-7.3125 13.75 -7.3125 13.75 -9 13 C-8.51862212 8.6675991 -7.29881816 6.81369784 -4 4 C-3.01 3.34 -2.02 2.68 -1 2 C-0.67 1.34 -0.34 0.68 0 0 Z " fill="#F75B59" transform="translate(114,206)"/>
<path d="M0 0 C0.33 0.66 0.66 1.32 1 2 C3.02463255 2.65213292 3.02463255 2.65213292 5 3 C4.67 3.99 4.34 4.98 4 6 C4.639375 6.12375 5.27875 6.2475 5.9375 6.375 C6.618125 6.58125 7.29875 6.7875 8 7 C8.33 7.66 8.66 8.32 9 9 C8.34 9 7.68 9 7 9 C6.67 10.32 6.34 11.64 6 13 C4.0625 13.5625 4.0625 13.5625 2 14 C1 13 1 13 0.9375 10.4375 C0.958125 9.633125 0.97875 8.82875 1 8 C0.01 8.33 -0.98 8.66 -2 9 C-2 5.61976483 -1.12544378 3.16531063 0 0 Z " fill="#F75C5B" transform="translate(115,240)"/>
<path d="M0 0 C1.70840281 1.63412443 2.93453047 2.86906094 4 5 C6.32671854 5.68939809 8.66067594 6.35466922 11 7 C11.99 7.66 12.98 8.32 14 9 C18.6798589 10.38051496 23.48009712 10.11208267 28.3125 10.0625 C29.14845703 10.05798828 29.98441406 10.05347656 30.84570312 10.04882812 C32.89716649 10.03710548 34.94859273 10.01917203 37 10 C37 10.33 37 10.66 37 11 C32.3889532 12.14583127 27.90914296 12.2188083 23.1875 12.25 C22.03411133 12.2809375 22.03411133 12.2809375 20.85742188 12.3125 C13.79467386 12.360181 8.22431873 10.37150598 2 7 C2 6.34 2 5.68 2 5 C-0.475 4.01 -0.475 4.01 -3 3 C-2.01 2.67 -1.02 2.34 0 2 C0 1.34 0 0.68 0 0 Z " fill="#E98586" transform="translate(356,307)"/>
<path d="M0 0 C5.61 0.33 11.22 0.66 17 1 C17 1.66 17 2.32 17 3 C19.64 3.33 22.28 3.66 25 4 C23.28515625 5.09375 23.28515625 5.09375 21 6 C18.80859375 5.46875 18.80859375 5.46875 16.4375 4.5 C8.92101742 2.00926571 2.28252096 3.69530715 -4.6875 7.125 C-5.780625 7.74375 -6.87375 8.3625 -8 9 C-7.6171875 7.078125 -7.6171875 7.078125 -7 5 C-4.41847698 3.27898465 -3.15081975 3 0 3 C0 2.01 0 1.02 0 0 Z " fill="#EA6F72" transform="translate(132,196)"/>
<path d="M0 0 C0.99 0.33 1.98 0.66 3 1 C2.40832031 2.05058594 1.81664062 3.10117187 1.20703125 4.18359375 C-2.88106731 11.44517715 -6.96847452 18.70678808 -11 26 C-11.33 26 -11.66 26 -12 26 C-12 24.02 -12 22.04 -12 20 C-11.34 20 -10.68 20 -10 20 C-10.33 18.68 -10.66 17.36 -11 16 C-10.34 16 -9.68 16 -9 16 C-8.67 15.34 -8.34 14.68 -8 14 C-7.34 14 -6.68 14 -6 14 C-6 12.68 -6 11.36 -6 10 C-5.34 10 -4.68 10 -4 10 C-4 9.01 -4 8.02 -4 7 C-3.34 7 -2.68 7 -2 7 C-2 5.02 -2 3.04 -2 1 C-1.34 0.67 -0.68 0.34 0 0 Z " fill="#EC8887" transform="translate(301,50)"/>
<path d="M0 0 C1.59036701 3.18073402 0.78365299 5.62426403 0 9 C-1.32467746 9.6837045 -2.65863633 10.34964186 -4 11 C-4.73075648 13.3140622 -5.40138258 15.64828869 -6 18 C-6.66 18.33 -7.32 18.66 -8 19 C-8.33 19.99 -8.66 20.98 -9 22 C-9.66 22 -10.32 22 -11 22 C-11 22.66 -11 23.32 -11 24 C-11.66 23.67 -12.32 23.34 -13 23 C-12.505 21.515 -12.505 21.515 -12 20 C-11.34 20 -10.68 20 -10 20 C-9.87109375 19.41734375 -9.7421875 18.8346875 -9.609375 18.234375 C-7.80452015 11.61657387 -3.6985504 5.69940553 0 0 Z " fill="#EA7B7E" transform="translate(286,43)"/>
<path d="M0 0 C0.66 0 1.32 0 2 0 C4.54625551 8.83700441 4.54625551 8.83700441 3 13 C1.5625 14.8125 1.5625 14.8125 0 16 C-0.66 16 -1.32 16 -2 16 C-2 17.32 -2 18.64 -2 20 C-3.98 20.99 -3.98 20.99 -6 22 C-6.66 21.34 -7.32 20.68 -8 20 C-6.92807816 18.6781638 -5.84197305 17.36782073 -4.75 16.0625 C-4.14671875 15.33160156 -3.5434375 14.60070312 -2.921875 13.84765625 C-0.89258866 11.89673666 0.254407 11.38268221 3 11 C2.7834375 10.37351562 2.566875 9.74703125 2.34375 9.1015625 C2.0653125 8.28429687 1.786875 7.46703125 1.5 6.625 C1.2215625 5.81289063 0.943125 5.00078125 0.65625 4.1640625 C0 2 0 2 0 0 Z " fill="#EC8083" transform="translate(161,392)"/>
<path d="M0 0 C2.58113204 4.73768606 3.50278428 9.77509992 4.6875 15 C4.92533203 15.99773437 5.16316406 16.99546875 5.40820312 18.0234375 C5.62798828 18.98507812 5.84777344 19.94671875 6.07421875 20.9375 C6.27619873 21.81277344 6.47817871 22.68804687 6.6862793 23.58984375 C7.00823447 26.06326125 6.77815415 27.65157505 6 30 C2.02390374 20.53310415 -0.61879102 10.31318368 0 0 Z " fill="#E8878D" transform="translate(166,333)"/>
<path d="M0 0 C0.66 0.33 1.32 0.66 2 1 C1.67 1.66 1.34 2.32 1 3 C1.66 3.33 2.32 3.66 3 4 C0.36 4 -2.28 4 -5 4 C-5 4.99 -5 5.98 -5 7 C-10.625 10 -10.625 10 -14 10 C-12.50893112 5.72249615 -9.96185715 4.60652455 -6 2.6875 C-4.39125 1.88892578 -4.39125 1.88892578 -2.75 1.07421875 C-1.8425 0.71972656 -0.935 0.36523438 0 0 Z " fill="#ED7273" transform="translate(234,103)"/>
<path d="M0 0 C0.66 0 1.32 0 2 0 C2 0.66 2 1.32 2 2 C2.66 2.33 3.32 2.66 4 3 C8.27398214 9.96500793 7.22281889 17.64580014 5.453125 25.39453125 C5.30359375 25.92433594 5.1540625 26.45414063 5 27 C4.34 27 3.68 27 3 27 C3.10699219 26.10539062 3.21398437 25.21078125 3.32421875 24.2890625 C4.10589565 16.40505247 3.92492414 10.37022963 1 3 C0.67 2.01 0.34 1.02 0 0 Z " fill="#EB7B7E" transform="translate(164,210)"/>
<path d="M0 0 C0.33 0.66 0.66 1.32 1 2 C1.66 2.33 2.32 2.66 3 3 C1.25 6.875 1.25 6.875 -1 8 C-3.3329866 8.04022391 -5.66706666 8.04320247 -8 8 C-7.01 7.67 -6.02 7.34 -5 7 C-5 5.02 -5 3.04 -5 1 C-3.35 0.67 -1.7 0.34 0 0 Z " fill="#F16363" transform="translate(164,251)"/>
<path d="M0 0 C0.66 0 1.32 0 2 0 C1.21302675 3.41021743 0.12880057 6.68885166 -1 10 C-1.66 10 -2.32 10 -3 10 C-3 10.99 -3 11.98 -3 13 C-3.99 13 -4.98 13 -6 13 C-6 13.66 -6 14.32 -6 15 C-6.66 15 -7.32 15 -8 15 C-6.25565047 10.08410586 -3.74513488 3.74513488 0 0 Z " fill="#ED7C7E" transform="translate(311,0)"/>
<path d="M0 0 C0.66 0 1.32 0 2 0 C1.27500854 5.94492996 -0.15159597 12.0751015 -5 16 C-5.33 14.35 -5.66 12.7 -6 11 C-5.01 11 -4.02 11 -3 11 C-3.020625 9.88625 -3.04125 8.7725 -3.0625 7.625 C-3 4 -3 4 -2 2 C-1.34 2 -0.68 2 0 2 C0 1.34 0 0.68 0 0 Z " fill="#EF8A8E" transform="translate(415,288)"/>
<path d="M0 0 C0.33 0 0.66 0 1 0 C1.76595745 20.72340426 1.76595745 20.72340426 -3 29 C-3.33 29 -3.66 29 -4 29 C-4.16796994 26.14451098 -4.04164811 24.11522644 -3.0625 21.40625 C-1.73791355 17.15978169 -1.30435256 13.03818119 -0.875 8.625 C-0.74544922 7.37783203 -0.74544922 7.37783203 -0.61328125 6.10546875 C-0.40281157 4.07092853 -0.20056686 2.0355403 0 0 Z " fill="#EA898C" transform="translate(283,131)"/>
<path d="M0 0 C2.91722548 -0.08103404 5.83219516 -0.14051081 8.75 -0.1875 C9.575 -0.21263672 10.4 -0.23777344 11.25 -0.26367188 C17.42297754 -0.33834499 17.42297754 -0.33834499 20.578125 1.51171875 C21.28195313 2.24841797 21.28195313 2.24841797 22 3 C19.69 3.66 17.38 4.32 15 5 C15 4.34 15 3.68 15 3 C10.03926578 1.67713754 5.08888488 1.91106803 0 2 C0 1.34 0 0.68 0 0 Z " fill="#F35D61" transform="translate(137,189)"/>
<path d="M0 0 C0 0.33 0 0.66 0 1 C-8.8671452 2.85924012 -16.16200704 3.07016051 -25 1 C-25 0.67 -25 0.34 -25 0 C-21.77138267 -0.19789024 -18.54210273 -0.38146345 -15.3125 -0.5625 C-14.40048828 -0.61857422 -13.48847656 -0.67464844 -12.54882812 -0.73242188 C-11.21948242 -0.80493164 -11.21948242 -0.80493164 -9.86328125 -0.87890625 C-9.05157471 -0.9260376 -8.23986816 -0.97316895 -7.40356445 -1.02172852 C-4.8210515 -0.99838228 -2.51150091 -0.5804792 0 0 Z " fill="#E47F7F" transform="translate(258,177)"/>
<path d="M0 0 C0.99 0.33 1.98 0.66 3 1 C1.61536056 4.12749407 0.00477577 6.2404985 -2.4375 8.625 C-3.03433594 9.21539062 -3.63117188 9.80578125 -4.24609375 10.4140625 C-6 12 -6 12 -9 14 C-9.99 13.67 -10.98 13.34 -12 13 C-11.34 13 -10.68 13 -10 13 C-10 12.01 -10 11.02 -10 10 C-8.68 10 -7.36 10 -6 10 C-6 9.34 -6 8.68 -6 8 C-5.34 8 -4.68 8 -4 8 C-3.67 7.01 -3.34 6.02 -3 5 C-2.34 5 -1.68 5 -1 5 C-0.67 3.35 -0.34 1.7 0 0 Z " fill="#F07B81" transform="translate(214,455)"/>
<path d="M0 0 C0 0.66 0 1.32 0 2 C-1.0828125 2.4021875 -1.0828125 2.4021875 -2.1875 2.8125 C-6.41344583 4.59678824 -9.41248193 6.36949281 -12.5625 9.75 C-13.7690625 10.86375 -13.7690625 10.86375 -15 12 C-17.3125 11.8125 -17.3125 11.8125 -19 11 C-17.625 9.5 -17.625 9.5 -16 8 C-15.34 8 -14.68 8 -14 8 C-14 7.34 -14 6.68 -14 6 C-12.04414675 4.99515796 -10.08523763 3.99626195 -8.125 3 C-7.03445312 2.443125 -5.94390625 1.88625 -4.8203125 1.3125 C-2 0 -2 0 0 0 Z " fill="#EA9190" transform="translate(131,189)"/>
<path d="M0 0 C0.66 0.33 1.32 0.66 2 1 C1.505 1.94875 1.01 2.8975 0.5 3.875 C-1.14424369 6.72278166 -1.14424369 6.72278166 -1 9 C0.2375 9.99 0.2375 9.99 1.5 11 C2.325 11.66 3.15 12.32 4 13 C4 13.66 4 14.32 4 15 C2.68 14.67 1.36 14.34 0 14 C0 13.01 0 12.02 0 11 C-1.32 10.67 -2.64 10.34 -4 10 C-4 9.01 -4 8.02 -4 7 C-4.66 6.67 -5.32 6.34 -6 6 C-2.25 3 -2.25 3 0 3 C0 2.01 0 1.02 0 0 Z " fill="#EE8C8D" transform="translate(272,102)"/>
<path d="M0 0 C0.33 0.66 0.66 1.32 1 2 C0.59007812 2.60328125 0.18015625 3.2065625 -0.2421875 3.828125 C-1.05042969 5.02695312 -1.05042969 5.02695312 -1.875 6.25 C-2.40867187 7.03890625 -2.94234375 7.8278125 -3.4921875 8.640625 C-4.81822015 10.71555692 -5.94928175 12.77614972 -7 15 C-7.33 15 -7.66 15 -8 15 C-8.65450987 9.76392104 -7.09690299 6.90953174 -4.38671875 2.63671875 C-3 1 -3 1 0 0 Z " fill="#EC8989" transform="translate(318,24)"/>
<path d="M0 0 C2.36775721 2.36775721 2.99896496 4.29711338 4.125 7.4375 C4.47820312 8.40558594 4.83140625 9.37367188 5.1953125 10.37109375 C6 13 6 13 6 16 C5.01 15.67 4.02 15.34 3 15 C2.67 14.01 2.34 13.02 2 12 C0.50014391 10.33289654 0.50014391 10.33289654 -1 9 C-0.67 8.34 -0.34 7.68 0 7 C0.04022391 4.6670134 0.04320247 2.33293334 0 0 Z " fill="#ED7F7F" transform="translate(113,227)"/>
<path d="M0 0 C0.33 0 0.66 0 1 0 C1.5321441 2.08047297 2.05031786 4.16452293 2.5625 6.25 C2.85253906 7.41015625 3.14257812 8.5703125 3.44140625 9.765625 C3.95179964 12.72090983 4.02996165 14.24434101 3 17 C3 16.01 3 15.02 3 14 C2.34 14 1.68 14 1 14 C0.67 13.34 0.34 12.68 0 12 C-0.99 12.495 -0.99 12.495 -2 13 C-2.042721 11.33388095 -2.04063832 9.66617115 -2 8 C-1.67 7.67 -1.34 7.34 -1 7 C-0.63239269 4.67182036 -0.29758419 2.3381615 0 0 Z " fill="#EF7F7D" transform="translate(158,298)"/>
<path d="M0 0 C0 0.66 0 1.32 0 2 C-0.99 2 -1.98 2 -3 2 C-3 2.99 -3 3.98 -3 5 C-4.98 5.99 -4.98 5.99 -7 7 C-6.67 7.66 -6.34 8.32 -6 9 C-6.99 9 -7.98 9 -9 9 C-10.125 6.6875 -10.125 6.6875 -11 4 C-10.34 3.01 -9.68 2.02 -9 1 C-8.01 1.33 -7.02 1.66 -6 2 C-1.6 0 -1.6 0 0 0 Z " fill="#F37072" transform="translate(365,245)"/>
<path d="M0 0 C4.78504172 2.48454089 7.86077669 4.47951843 11 9 C9.35 9.33 7.7 9.66 6 10 C5.67 9.01 5.34 8.02 5 7 C2.99983534 5.79117904 2.99983534 5.79117904 1 5 C1.33 4.01 1.66 3.02 2 2 C1.34 2 0.68 2 0 2 C0 1.34 0 0.68 0 0 Z " fill="#ED7E82" transform="translate(398,247)"/>
<path d="M0 0 C1.8871875 0.0309375 1.8871875 0.0309375 3.8125 0.0625 C3.8125 1.0525 3.8125 2.0425 3.8125 3.0625 C5.1325 3.7225 6.4525 4.3825 7.8125 5.0625 C6.8225 5.5575 6.8225 5.5575 5.8125 6.0625 C3.46734112 5.09684634 1.25750404 3.93941312 -0.99609375 2.77734375 C-1.71925781 2.54144531 -2.44242188 2.30554688 -3.1875 2.0625 C-4.1775 2.7225 -5.1675 3.3825 -6.1875 4.0625 C-6.5175 3.0725 -6.8475 2.0825 -7.1875 1.0625 C-4.43671116 0.14557039 -2.82801087 -0.04636083 0 0 Z " fill="#EE888B" transform="translate(225.1875,170.9375)"/>
<path d="M0 0 C0.49628906 0.39832031 0.99257812 0.79664063 1.50390625 1.20703125 C5.85302633 4.59884975 9.8350929 7.06315984 15 9 C15 9.33 15 9.66 15 10 C10.3386221 10.32521241 7.75935554 9.81951666 4 7 C3.34 6.01 2.68 5.02 2 4 C1.01 3.67 0.02 3.34 -1 3 C-0.67 2.01 -0.34 1.02 0 0 Z " fill="#EE8A87" transform="translate(120,243)"/>
<path d="M0 0 C0.33 0.66 0.66 1.32 1 2 C2.32 1.67 3.64 1.34 5 1 C3.68535639 5.60125265 1.96668552 9.22421843 -1 13 C-1.99 13 -2.98 13 -4 13 C-4 12.34 -4 11.68 -4 11 C-3.01 11 -2.02 11 -1 11 C-0.67 7.37 -0.34 3.74 0 0 Z " fill="#EF8284" transform="translate(280,81)"/>
<path d="M0 0 C2.93200474 2.85276137 5.64315404 5.65079784 8 9 C7.01 9.495 7.01 9.495 6 10 C6 9.34 6 8.68 6 8 C4.824375 7.7834375 4.824375 7.7834375 3.625 7.5625 C1 7 1 7 -1 6 C-0.67 4.02 -0.34 2.04 0 0 Z " fill="#F18081" transform="translate(339,228)"/>
<path d="M0 0 C2.97 0.495 2.97 0.495 6 1 C6 1.99 6 2.98 6 4 C7.65002828 5.35386936 9.3174387 6.68678142 11 8 C11.33 8.99 11.66 9.98 12 11 C9 11 9 11 6.73828125 8.84765625 C5.93777344 7.92855469 5.13726562 7.00945312 4.3125 6.0625 C3.50425781 5.14597656 2.69601562 4.22945312 1.86328125 3.28515625 C0 1 0 1 0 0 Z " fill="#EA8D8D" transform="translate(283,194)"/>
<path d="M0 0 C2.97 0.495 2.97 0.495 6 1 C6 1.66 6 2.32 6 3 C7.98 2.34 9.96 1.68 12 1 C12.66 1.66 13.32 2.32 14 3 C12.68 3.33 11.36 3.66 10 4 C10 4.66 10 5.32 10 6 C10.66 6.33 11.32 6.66 12 7 C8.80862651 6.36747553 6.48762632 5.24396936 3.75 3.5 C3.04359375 3.0565625 2.3371875 2.613125 1.609375 2.15625 C1.07828125 1.7746875 0.5471875 1.393125 0 1 C0 0.67 0 0.34 0 0 Z " fill="#ED8582" transform="translate(159,464)"/>
<path d="M0 0 C1.98 0.66 3.96 1.32 6 2 C6 1.34 6 0.68 6 0 C7.98 0 9.96 0 12 0 C9.50082237 2.49917763 7.20044203 3.00868864 3.875 4.0234375 C1.49650688 5.02915838 1.49650688 5.02915838 0 9 C0 6.03 0 3.06 0 0 Z " fill="#F08A8B" transform="translate(150,259)"/>
<path d="M0 0 C3.31481316 3.31481316 3.97213772 6.15020054 4.125 10.8125 C4.08375 11.864375 4.0425 12.91625 4 14 C2.68 13.34 1.36 12.68 0 12 C0 8.04 0 4.08 0 0 Z " fill="#EC8183" transform="translate(176,209)"/>
<path d="M0 0 C0.66 0.99 1.32 1.98 2 3 C1.113125 3.391875 0.22625 3.78375 -0.6875 4.1875 C-4.12129608 6.06636955 -6.36541769 8.13295455 -9 11 C-9.99 10.67 -10.98 10.34 -12 10 C-8.04 6.7 -4.08 3.4 0 0 Z " fill="#EE8C8D" transform="translate(208,159)"/>
<path d="M0 0 C2.70860665 -0.05429278 5.41610901 -0.09381211 8.125 -0.125 C8.88554687 -0.14175781 9.64609375 -0.15851563 10.4296875 -0.17578125 C15.03270731 -0.21546246 18.66464004 0.24092423 23 2 C23 2.33 23 2.66 23 3 C16.84765625 3.09765625 16.84765625 3.09765625 15 3 C14.67 2.67 14.34 2.34 14 2 C11.65012738 1.76472227 9.29443961 1.58613583 6.9375 1.4375 C5.64714844 1.35371094 4.35679687 1.26992187 3.02734375 1.18359375 C1.52880859 1.09271484 1.52880859 1.09271484 0 1 C0 0.67 0 0.34 0 0 Z " fill="#ED8A89" transform="translate(371,242)"/>
<path d="M0 0 C-2.64487605 1.7632507 -4.46744484 2.57843145 -7.4375 3.5 C-10.45730567 4.44017638 -13.20159225 5.52111481 -16 7 C-15.75 5.125 -15.75 5.125 -15 3 C-10.66102087 -0.05335568 -5.14201248 -0.15123566 0 0 Z " fill="#EA8486" transform="translate(140,198)"/>
<path d="M0 0 C3.8336408 3.17266825 6.21000297 7.0673356 7 12 C6.0703125 14.25 6.0703125 14.25 5 16 C4.80664062 15.38511719 4.61328125 14.77023438 4.4140625 14.13671875 C4.15367187 13.32847656 3.89328125 12.52023438 3.625 11.6875 C3.36976563 10.88699219 3.11453125 10.08648437 2.8515625 9.26171875 C2.01168189 6.77275472 2.01168189 6.77275472 0 4 C0 2.68 0 1.36 0 0 Z " fill="#EA8586" transform="translate(276,117)"/>
<path d="M0 0 C0.61875 0.350625 1.2375 0.70125 1.875 1.0625 C2.57625 1.371875 3.2775 1.68125 4 2 C4.66 1.67 5.32 1.34 6 1 C6.66 1.33 7.32 1.66 8 2 C8 2.66 8 3.32 8 4 C5.4385343 6.29648649 4.52032428 7 1 7 C0.67 4.69 0.34 2.38 0 0 Z " fill="#F17170" transform="translate(400,304)"/>
<path d="M0 0 C0.66 0.33 1.32 0.66 2 1 C1.67 1.66 1.34 2.32 1 3 C1.66 3.66 2.32 4.32 3 5 C1 6 1 6 -1.375 5.9375 C-4.16893272 6.00402221 -5.62529681 6.59276848 -8 8 C-4.55384615 3.2 -4.55384615 3.2 -1.75 2.1875 C-1.1725 2.125625 -0.595 2.06375 0 2 C0 1.34 0 0.68 0 0 Z M-1 6 C-0.01 6.495 -0.01 6.495 1 7 C0.34 7.66 -0.32 8.32 -1 9 C-1 8.01 -1 7.02 -1 6 Z " fill="#EF7D7F" transform="translate(175,186)"/>
<path d="M0 0 C0.33 0 0.66 0 1 0 C1.53067341 2.10170656 2.04922857 4.20647598 2.5625 6.3125 C2.85253906 7.48425781 3.14257812 8.65601563 3.44140625 9.86328125 C4 13 4 13 3 16 C-0.13107836 12.61416198 -0.33550778 10.28890538 -0.1875 5.75 C-0.14689453 4.13351562 -0.14689453 4.13351562 -0.10546875 2.484375 C-0.07066406 1.66453125 -0.03585938 0.8446875 0 0 Z " fill="#EE9191" transform="translate(175,371)"/>
<path d="M0 0 C1.32 0 2.64 0 4 0 C6.09230769 4.43076923 6.09230769 4.43076923 5.625 7.3125 C5.41875 7.869375 5.2125 8.42625 5 9 C4.731875 8.360625 4.46375 7.72125 4.1875 7.0625 C3.11332248 4.66868314 3.11332248 4.66868314 0 4 C-0.33 3.01 -0.66 2.02 -1 1 C-0.67 0.67 -0.34 0.34 0 0 Z " fill="#F17A7C" transform="translate(337,251)"/>
<path d="M0 0 C0.33 0.99 0.66 1.98 1 3 C-0.32 3.33 -1.64 3.66 -3 4 C-3 4.99 -3 5.98 -3 7 C-5.64 7 -8.28 7 -11 7 C-8.99766723 4.99766723 -7.46399161 4.14342975 -4.9375 2.9375 C-2.27306757 1.74827237 -2.27306757 1.74827237 0 0 Z " fill="#ED908E" transform="translate(159,246)"/>
<path d="M0 0 C0.33 0.66 0.66 1.32 1 2 C0.34 2 -0.32 2 -1 2 C-1.12375 2.680625 -1.2475 3.36125 -1.375 4.0625 C-2.09100877 7.4277412 -3.02945125 10.70013425 -4 14 C-4.66 13.34 -5.32 12.68 -6 12 C-6 10.68 -6 9.36 -6 8 C-5.34 8 -4.68 8 -4 8 C-4 6.35 -4 4.7 -4 3 C-3.34 3 -2.68 3 -2 3 C-2 2.34 -2 1.68 -2 1 C-1.34 0.67 -0.68 0.34 0 0 Z " fill="#EE8181" transform="translate(119,209)"/>
<path d="M0 0 C2.33944736 0.28730055 4.6739143 0.61936779 7 1 C5.37660195 2.70884005 3.70680947 4.37446717 2 6 C1.34 6 0.68 6 0 6 C-0.38218767 4.34385343 -0.71395102 2.67542976 -1 1 C-0.67 0.67 -0.34 0.34 0 0 Z " fill="#F27879" transform="translate(195,188)"/>
<path d="M0 0 C1.32 0 2.64 0 4 0 C4 0.99 4 1.98 4 3 C4.99 3 5.98 3 7 3 C7.33 4.98 7.66 6.96 8 9 C7.67 8.34 7.34 7.68 7 7 C6.34 7 5.68 7 5 7 C5 6.34 5 5.68 5 5 C4.34 5 3.68 5 3 5 C1.375 2.5 1.375 2.5 0 0 Z " fill="#EA7C79" transform="translate(269,178)"/>
<path d="M0 0 C1.53445094 3.06890187 0.54984289 5.70094266 0 9 C-1.98 9.66 -3.96 10.32 -6 11 C-5.18993474 9.35296694 -4.3768779 7.70740494 -3.5625 6.0625 C-3.11003906 5.14597656 -2.65757812 4.22945312 -2.19140625 3.28515625 C-1 1 -1 1 0 0 Z " fill="#EE8986" transform="translate(286,43)"/>
<path d="M0 0 C0.99 0.33 1.98 0.66 3 1 C3 4.96 3 8.92 3 13 C2.67 13 2.34 13 2 13 C-0.28571429 4.57142857 -0.28571429 4.57142857 0 0 Z " fill="#EB8989" transform="translate(158,378)"/>
<path d="M0 0 C1.62580966 0.11398665 3.25067157 0.24155659 4.875 0.375 C5.77992187 0.44460938 6.68484375 0.51421875 7.6171875 0.5859375 C10 1 10 1 12 3 C11.01 4.485 11.01 4.485 10 6 C10 5.34 10 4.68 10 4 C9.278125 3.87625 8.55625 3.7525 7.8125 3.625 C5.04278106 3.0095069 2.6029646 2.11555626 0 1 C0 0.67 0 0.34 0 0 Z " fill="#F08A8F" transform="translate(121,259)"/>
<path d="M0 0 C0.99 0.495 0.99 0.495 2 1 C2 1.66 2 2.32 2 3 C2.66 3 3.32 3 4 3 C4 3.66 4 4.32 4 5 C4.66 5 5.32 5 6 5 C6.66 6.32 7.32 7.64 8 9 C6.33333333 9 4.66666667 9 3 9 C2.01 6.03 1.02 3.06 0 0 Z " fill="#ED8887" transform="translate(347,237)"/>
<path d="M0 0 C2.64 0.66 5.28 1.32 8 2 C8 3.98 8 5.96 8 8 C6.85073734 7.04578192 5.70569459 6.08647955 4.5625 5.125 C3.92441406 4.59132812 3.28632813 4.05765625 2.62890625 3.5078125 C1 2 1 2 0 0 Z " fill="#EE8386" transform="translate(319,234)"/>
<path d="M0 0 C0.99 0.33 1.98 0.66 3 1 C2.01 2.98 1.02 4.96 0 7 C-0.99 7 -1.98 7 -3 7 C-2.25 2.25 -2.25 2.25 0 0 Z " fill="#EE6B6A" transform="translate(112,201)"/>
<path d="M0 0 C1.65 0 3.3 0 5 0 C2.35039045 3.63094642 -0.01824456 5.89851796 -4 8 C-4 6.35 -4 4.7 -4 3 C-2.68 3.33 -1.36 3.66 0 4 C0 2.68 0 1.36 0 0 Z " fill="#ED898A" transform="translate(212,176)"/>
<path d="M0 0 C1.32 0.66 2.64 1.32 4 2 C3.67 3.65 3.34 5.3 3 7 C-0.465 5.02 -0.465 5.02 -4 3 C-2.68 2.67 -1.36 2.34 0 2 C0 1.34 0 0.68 0 0 Z " fill="#F27D7F" transform="translate(266,171)"/>
<path d="M0 0 C0.99 0 1.98 0 3 0 C1.66749209 3.5875213 0.169283 6.8364623 -2 10 C-2.66 10 -3.32 10 -4 10 C-2.85408232 6.56224696 -1.44249373 3.3240073 0 0 Z " fill="#EC7D80" transform="translate(322,13)"/>
<path d="M0 0 C0.66 0 1.32 0 2 0 C1.88541307 1.43836751 1.75790884 2.87570966 1.625 4.3125 C1.55539063 5.11300781 1.48578125 5.91351563 1.4140625 6.73828125 C1 9 1 9 -1 12 C-1.33 9.69 -1.66 7.38 -2 5 C-1.34 5 -0.68 5 0 5 C0 3.35 0 1.7 0 0 Z " fill="#E97979" transform="translate(221,438)"/>
<path d="M0 0 C2.88437779 1.29299694 4.87219421 2.65941363 7 5 C6.34 6.32 5.68 7.64 5 9 C4.67 7.35 4.34 5.7 4 4 C3.01 4.33 2.02 4.66 1 5 C0.67 3.35 0.34 1.7 0 0 Z " fill="#EB7878" transform="translate(208,405)"/>
<path d="M0 0 C0.66 0 1.32 0 2 0 C2.39036513 1.60049704 2.76178619 3.20562371 3.125 4.8125 C3.33382812 5.70582031 3.54265625 6.59914063 3.7578125 7.51953125 C4 10 4 10 2 13 C-0.28571429 4.57142857 -0.28571429 4.57142857 0 0 Z " fill="#EC8584" transform="translate(143,313)"/>
<path d="M0 0 C2.475 0.495 2.475 0.495 5 1 C5.33 1.99 5.66 2.98 6 4 C6.66 4.33 7.32 4.66 8 5 C8.625 7.5625 8.625 7.5625 9 10 C5.73991357 6.83047153 2.77762123 3.60062011 0 0 Z " fill="#EB888C" transform="translate(296,208)"/>
<path d="M0 0 C0.99 0.495 0.99 0.495 2 1 C2 1.66 2 2.32 2 3 C2.598125 3.226875 3.19625 3.45375 3.8125 3.6875 C6.56351888 5.33811133 7.52484637 7.1972081 9 10 C8.01 10 7.02 10 6 10 C6 9.34 6 8.68 6 8 C4.68 7.34 3.36 6.68 2 6 C2.33 5.67 2.66 5.34 3 5 C2.2575 4.319375 2.2575 4.319375 1.5 3.625 C0 2 0 2 0 0 Z " fill="#EF8C8D" transform="translate(291,175)"/>
<path d="M0 0 C-0.33 0.66 -0.66 1.32 -1 2 C-0.34 2.33 0.32 2.66 1 3 C-2.63 3.33 -6.26 3.66 -10 4 C-4 -2 -4 -2 0 0 Z " fill="#EE7D7B" transform="translate(236,104)"/>
<path d="M0 0 C0.33 0 0.66 0 1 0 C1 1.65 1 3.3 1 5 C1.66 5 2.32 5 3 5 C2.67 7.64 2.34 10.28 2 13 C1.67 13 1.34 13 1 13 C-1.42857143 4.57142857 -1.42857143 4.57142857 0 0 Z " fill="#ED8D8B" transform="translate(156,365)"/>
<path d="M0 0 C0.66 0 1.32 0 2 0 C2 0.66 2 1.32 2 2 C2.66 2 3.32 2 4 2 C4 2.66 4 3.32 4 4 C4.66 4 5.32 4 6 4 C6 4.66 6 5.32 6 6 C6.66 6 7.32 6 8 6 C8 6.66 8 7.32 8 8 C8.99 8.33 9.98 8.66 11 9 C10.34 9.66 9.68 10.32 9 11 C7.62437146 9.71034824 6.29233607 8.37310707 5 7 C5 6.34 5 5.68 5 5 C4.34 5 3.68 5 3 5 C3 4.34 3 3.68 3 3 C2.34 3 1.68 3 1 3 C0.67 2.01 0.34 1.02 0 0 Z " fill="#EC8A8B" transform="translate(308,221)"/>
<path d="M0 0 C0.66 0 1.32 0 2 0 C1.67 1.65 1.34 3.3 1 5 C-0.32 5.33 -1.64 5.66 -3 6 C-3 6.66 -3 7.32 -3 8 C-3.66 7.67 -4.32 7.34 -5 7 C-4.21654285 5.82780457 -3.42297164 4.66236332 -2.625 3.5 C-2.18414062 2.8503125 -1.74328125 2.200625 -1.2890625 1.53125 C-0.65097656 0.77328125 -0.65097656 0.77328125 0 0 Z " fill="#EC9090" transform="translate(218,112)"/>
<path d="M0 0 C0.66 0.99 1.32 1.98 2 3 C1.67 3.99 1.34 4.98 1 6 C0.34 6 -0.32 6 -1 6 C-1 6.66 -1 7.32 -1 8 C-2.98 8.99 -2.98 8.99 -5 10 C-3.66511872 6.40608886 -2.03977277 3.24509304 0 0 Z " fill="#EF8B8D" transform="translate(258,91)"/>
<path d="M0 0 C0.33 0 0.66 0 1 0 C1.375 2.75 1.375 2.75 1 6 C-2 8.375 -2 8.375 -5 10 C-3.66654496 6.40992874 -2.1056769 3.20429093 0 0 Z " fill="#EE8085" transform="translate(264,81)"/>
<path d="M0 0 C2.4375 0.375 2.4375 0.375 5 1 C5.33 1.66 5.66 2.32 6 3 C6.99 3.33 7.98 3.66 9 4 C8.67 5.32 8.34 6.64 8 8 C6.66372225 6.85760183 5.33104612 5.71098945 4 4.5625 C3.2575 3.92441406 2.515 3.28632813 1.75 2.62890625 C1.1725 2.09136719 0.595 1.55382812 0 1 C0 0.67 0 0.34 0 0 Z " fill="#EC9396" transform="translate(155,202)"/>
<path d="M0 0 C0 3 0 3 -1 5 C-1.66 5 -2.32 5 -3 5 C-3 5.66 -3 6.32 -3 7 C-4.32 7 -5.64 7 -7 7 C-7 6.34 -7 5.68 -7 5 C-5.46875 3.7109375 -5.46875 3.7109375 -3.5 2.375 C-2.8503125 1.92898437 -2.200625 1.48296875 -1.53125 1.0234375 C-1.0259375 0.68570313 -0.520625 0.34796875 0 0 Z " fill="#ED8D90" transform="translate(195,170)"/>
<path d="M0 0 C0.66 0 1.32 0 2 0 C1.67 1.98 1.34 3.96 1 6 C0.34 6 -0.32 6 -1 6 C-1.33 6.66 -1.66 7.32 -2 8 C-3.125 4.25 -3.125 4.25 -2 2 C-1.34 2 -0.68 2 0 2 C0 1.34 0 0.68 0 0 Z " fill="#EB7878" transform="translate(415,288)"/>
<path d="M0 0 C2.61047801 1.305239 2.68066423 2.35826574 3.625 5.0625 C3.88539063 5.79597656 4.14578125 6.52945312 4.4140625 7.28515625 C4.60742188 7.85105469 4.80078125 8.41695313 5 9 C4.34 9 3.68 9 3 9 C3 9.66 3 10.32 3 11 C2.01 10.67 1.02 10.34 0 10 C0.66 10 1.32 10 2 10 C1.34 6.7 0.68 3.4 0 0 Z " fill="#EF8284" transform="translate(411,259)"/>
<path d="M0 0 C1.32 0.33 2.64 0.66 4 1 C3.1875 2.9375 3.1875 2.9375 2 5 C1.01 5.33 0.02 5.66 -1 6 C-1 5.34 -1 4.68 -1 4 C-1.66 4 -2.32 4 -3 4 C-2.67 3.34 -2.34 2.68 -2 2 C-1.34 2.33 -0.68 2.66 0 3 C0 2.01 0 1.02 0 0 Z " fill="#ED7C7C" transform="translate(179,202)"/>
<path d="M0 0 C0 0.66 0 1.32 0 2 C-0.78375 2.28875 -1.5675 2.5775 -2.375 2.875 C-5.09671632 3.84912254 -5.09671632 3.84912254 -7 6 C-7.99 6 -8.98 6 -10 6 C-9.67 5.01 -9.34 4.02 -9 3 C-2.88888889 0 -2.88888889 0 0 0 Z " fill="#E87F81" transform="translate(131,189)"/>
<path d="M0 0 C0.66 0 1.32 0 2 0 C2.33 0.66 2.66 1.32 3 2 C3.99 2.33 4.98 2.66 6 3 C1.125 7 1.125 7 0 7 C0 4.69 0 2.38 0 0 Z " fill="#EE7475" transform="translate(189,192)"/>
<path d="M0 0 C4.75 0.75 4.75 0.75 7 3 C4.69 3.66 2.38 4.32 0 5 C0 3.35 0 1.7 0 0 Z " fill="#F07A80" transform="translate(152,189)"/>
<path d="M0 0 C1 4 1 4 0.3125 6.1875 C-1 8 -1 8 -5 9 C-3.35 6.03 -1.7 3.06 0 0 Z " fill="#F18386" transform="translate(270,71)"/>
<path d="M0 0 C0.66 1.32 1.32 2.64 2 4 C0.02 5.32 -1.96 6.64 -4 8 C-4 6.02 -4 4.04 -4 2 C-2.68 2.33 -1.36 2.66 0 3 C0 2.01 0 1.02 0 0 Z " fill="#F08081" transform="translate(170,248)"/>
<path d="M0 0 C0.66 0 1.32 0 2 0 C0.63016497 3.16115776 0.0109362 3.9927092 -3 6 C-3.99 5.67 -4.98 5.34 -6 5 C-5.34 5 -4.68 5 -4 5 C-4 4.01 -4 3.02 -4 2 C-2.68 2 -1.36 2 0 2 C0 1.34 0 0.68 0 0 Z " fill="#E98F91" transform="translate(208,463)"/>
<path d="M0 0 C1.37245106 2.74490212 0.93580311 4.12060581 0 7 C-2.0625 8.3125 -2.0625 8.3125 -4 9 C-2.94124926 5.59687262 -1.99097846 2.98646769 0 0 Z " fill="#EB9697" transform="translate(152,414)"/>
<path d="M0 0 C2.97 0.495 2.97 0.495 6 1 C4.68 2.32 3.36 3.64 2 5 C1.34 4.67 0.68 4.34 0 4 C0 2.68 0 1.36 0 0 Z " fill="#F17377" transform="translate(118,204)"/>
<path d="M0 0 C0.66 0.33 1.32 0.66 2 1 C0.8125 3.4375 0.8125 3.4375 -1 6 C-3.6875 6.8125 -3.6875 6.8125 -6 7 C-6 6.34 -6 5.68 -6 5 C-4.04072937 3.2856382 -2.04119788 1.61594832 0 0 Z " fill="#F1999A" transform="translate(183,179)"/>
<path d="M0 0 C1.65 0.33 3.3 0.66 5 1 C4.67 1.99 4.34 2.98 4 4 C2.02 4 0.04 4 -2 4 C-1.34 2.68 -0.68 1.36 0 0 Z " fill="#EE6D6E" transform="translate(186,177)"/>
<path d="M0 0 C0.66 0.66 1.32 1.32 2 2 C1.625 4.125 1.625 4.125 1 6 C1 5.34 1 4.68 1 4 C0.360625 3.87625 -0.27875 3.7525 -0.9375 3.625 C-1.618125 3.41875 -2.29875 3.2125 -3 3 C-3.33 2.34 -3.66 1.68 -4 1 C-2.125 0.375 -2.125 0.375 0 0 Z " fill="#F26C72" transform="translate(309,217)"/>
</svg>
